<?xml version="1.0" encoding="utf-8"?>
<!-- Generator: Adobe Illustrator 19.0.0, SVG Export Plug-In . SVG Version: 6.00 Build 0)  -->
<svg version="1.1" id="Layer_1" xmlns="http://www.w3.org/2000/svg" xmlns:xlink="http://www.w3.org/1999/xlink" x="0px" y="0px"
	 viewBox="0 0 400 75" style="enable-background:new 0 0 400 75;" xml:space="preserve">
<style type="text/css">
	.st0{fill:#FFFFFF;}
</style>
<g id="XMLID_36_">
	<path id="XMLID_37_" d="M89.4,21H79v-4.4c0-5.1,2-8,5.5-8c0.8,0,2,0.2,2.9,0.5v4.7l0.3,0.2c2,1,6.4,1.9,9,2l0.4,0l0.1-0.4
		c0.6-2.1,1.3-5.7,1.3-8.7c0-0.9,0-2.5-0.3-3.8l-0.1-0.3l-0.3-0.1c-3.6-1.4-9.3-2.1-12.7-2.1c-12,0-18.7,6-18.7,17v2.2
		c-1.4,0.4-3.3,1.1-4.3,1.8L62,21.7l-0.1,0.1c-0.8,1.8-1.5,5.5-1.6,7.5l-0.1,0.6h6.2v21.8c-1.5,0.5-3.3,1.3-4.4,2.2l-0.2,0.2
		c-0.6,1.3-1.1,3.9-1.3,5.9l0,0.6h26.5l0.1-0.5c0.3-1.7,0-5.1-0.5-6.4l-0.1-0.2l-0.2-0.1c-1.7-0.7-5-1.4-7.3-1.6V29.9h10.8l0.1-0.5
		c0.3-2.4,0-6.5-0.4-8L89.4,21z"/>
	<path id="XMLID_40_" d="M115.2,19.6c-12.2,0-20.5,8.3-20.5,20.6c0,14.1,7.3,21.8,20.5,21.8c12.6,0,20.4-8.4,20.4-21.8
		C135.6,27.5,127.7,19.6,115.2,19.6z M115.2,53.5c-4.7,0-7.6-5.1-7.6-13.3c0-7.6,2.8-12.1,7.6-12.1c4.4,0,7.4,4.9,7.4,12.1
		C122.6,46.3,121.3,53.5,115.2,53.5z"/>
	<path id="XMLID_41_" d="M163.1,20.9c-5.2,0-9.3,2.3-11.4,6.4v-5.7h-10.2v39h10.5V38.3c0-5,2.8-8,7.4-8c4.5,0,6.5,2.4,6.5,7.7v22.8
		h10.5v-25C176.3,26.2,171.6,20.9,163.1,20.9z"/>
	<path id="XMLID_42_" d="M201.8,10.9h-10.3v11.2h-9.9v8.6h9.9v17.4c0,9.1,4.1,12.6,14.8,12.6c0.1,0,8.2-0.1,8.7-0.1l0.5-0.1l0-8.5
		l-0.6,0c-0.4,0-6.8,0.1-7.8,0.1c-1.9,0-5.1-0.5-5.1-3.9V30.7h13.9v-8.6h-14.1V10.9z"/>
	<path id="XMLID_43_" d="M241.1,50.5l-8.3-28.8h-11.6l13.5,38.7l-0.3,1.3c-0.8,2.7-2.7,3.9-6.3,3.9c-0.7,0-1.8,0-1.9-0.1l-0.7-0.2
		v8.9l0.5,0.1c0.3,0,2.2,0.1,3.7,0.1c9.6,0,14.1-3.5,17.5-13.6l13.3-39.1h-11.1L241.1,50.5z"/>
	<rect id="XMLID_44_" x="263.5" y="63.4" width="36.7" height="9.5"/>
</g>
<g id="XMLID_29_">
	<path id="XMLID_2_" d="M395,53.5h-80c-2.8,0-5-2.2-5-5v-22c0-2.8,2.2-5,5-5h80c2.8,0,5,2.2,5,5v22C400,51.2,397.8,53.5,395,53.5z"
		/>
	<g id="XMLID_3_">
		<path id="XMLID_4_" class="st0" d="M326.9,41.3h-4.4l-0.9,3.6h-2.9l4.4-14.8h3.4l4.4,14.8h-3.1L326.9,41.3z M326.3,39l-1.5-6h-0.1
			l-1.6,6H326.3z"/>
		<path id="XMLID_7_" class="st0" d="M345.2,44.9h-9.4V30.1h2.9v12.2h6.5V44.9z"/>
		<path id="XMLID_9_" class="st0" d="M355.5,30.1c3.1,0,5.1,2,5.1,5.1c0,3.1-2,5-5.2,5h-2.4v4.7H350V30.1H355.5z M352.9,37.8h1.8
			c1.9,0,2.9-0.9,2.9-2.7c0-1.8-1-2.7-2.9-2.7h-1.8V37.8z"/>
		<path id="XMLID_12_" class="st0" d="M372.5,44.9v-6.3h-4.8v6.3h-2.9V30.1h2.9v6h4.8v-6h2.9v14.8H372.5z"/>
		<path id="XMLID_14_" class="st0" d="M387.3,41.3h-4.4l-0.9,3.6H379l4.4-14.8h3.4l4.4,14.8h-3.1L387.3,41.3z M386.7,39l-1.5-6H385
			l-1.6,6H386.7z"/>
	</g>
</g>
</svg>
